<svg width="24" height="25" viewBox="0 0 24 25" fill="none" xmlns="http://www.w3.org/2000/svg">
<path fill-rule="evenodd" clip-rule="evenodd" d="M10.1111 2.5C9.37473 2.5 8.77778 3.09695 8.77778 3.83333C8.77778 4.20152 8.4793 4.5 8.11111 4.5H8H5C4.44772 4.5 4 4.94772 4 5.5C4 6.05228 4.44772 6.5 5 6.5H8H8.11111H15.8873H15.8889H16H19C19.5523 6.5 20 6.05228 20 5.5C20 4.94772 19.5523 4.5 19 4.5H15.8881C15.5203 4.49956 15.2222 4.20126 15.2222 3.83333C15.2222 3.09695 14.6253 2.5 13.8889 2.5H10.1111Z" fill="#1A1F2F" fill-opacity="0.3"/>
<path fill-rule="evenodd" clip-rule="evenodd" d="M6 8.5C5.72035 8.5 5.45348 8.6171 5.26412 8.82289C5.07477 9.02868 4.98023 9.30436 5.00346 9.58305L5.77422 18.8322C5.94698 20.9054 7.68005 22.5 9.7604 22.5H14.2396C16.32 22.5 18.053 20.9054 18.2258 18.8322L18.9965 9.58305C19.0198 9.30436 18.9252 9.02868 18.7359 8.82289C18.5465 8.6171 18.2797 8.5 18 8.5H6Z" fill="#1A1F2F" fill-opacity="0.3"/>
</svg>
