<svg width="22" height="28" viewBox="0 0 22 28" fill="none" xmlns="http://www.w3.org/2000/svg">
<path fill-rule="evenodd" clip-rule="evenodd" d="M8.40276 0C7.39025 0 6.56945 0.83573 6.56945 1.86666C6.56945 2.38213 6.15904 2.8 5.65278 2.8H5.5H1.375C0.615615 2.8 0 3.42681 0 4.2C0 4.97319 0.615615 5.6 1.375 5.6H5.5H5.65278H16.345H16.3472H16.5H20.625C21.3844 5.6 22 4.97319 22 4.2C22 3.42681 21.3844 2.8 20.625 2.8H16.3461C15.8404 2.79938 15.4305 2.38176 15.4305 1.86666C15.4305 0.83573 14.6098 0 13.5972 0H8.40276Z" fill="#FFFFFF"/>
<path fill-rule="evenodd" clip-rule="evenodd" d="M2.75 8.3999C2.36548 8.3999 1.99853 8.56384 1.73816 8.85195C1.47781 9.14005 1.34781 9.52601 1.37976 9.91617L2.43955 22.865C2.6771 25.7675 5.06007 27.9999 7.92055 27.9999H14.0794C16.94 27.9999 19.3229 25.7675 19.5605 22.865L20.6202 9.91617C20.6522 9.52601 20.5221 9.14005 20.2619 8.85195C20.0014 8.56384 19.6346 8.3999 19.25 8.3999H2.75Z" fill="#FFFFFF"/>
</svg>
