<svg width="24" height="24" viewBox="0 0 24 24" fill="none" xmlns="http://www.w3.org/2000/svg">
<path d="M12 19L10.84 17.9373C9.49333 16.6975 8.38 15.6281 7.5 14.7289C6.62 13.8297 5.92 13.0225 5.4 12.3072C4.88 11.592 4.51667 10.9346 4.31 10.3351C4.10333 9.73569 4 9.12262 4 8.49591C4 7.21526 4.42 6.14578 5.26 5.28747C6.1 4.42916 7.14667 4 8.4 4C9.09333 4 9.75333 4.14986 10.38 4.44959C11.0067 4.74932 11.5467 5.17166 12 5.71662C12.4533 5.17166 12.9933 4.74932 13.62 4.44959C14.2467 4.14986 14.9067 4 15.6 4C16.8533 4 17.9 4.42916 18.74 5.28747C19.58 6.14578 20 7.21526 20 8.49591C20 9.12262 19.8967 9.73569 19.69 10.3351C19.4833 10.9346 19.12 11.592 18.6 12.3072C18.08 13.0225 17.38 13.8297 16.5 14.7289C15.62 15.6281 14.5067 16.6975 13.16 17.9373L12 19Z" fill="#FFFFFF"/>
</svg>
