<svg width="32" height="32" viewBox="0 0 32 32" fill="none" xmlns="http://www.w3.org/2000/svg">
<path d="M16 28.0001L14.0666 26.2668C11.8222 24.2446 9.96663 22.5001 8.49996 21.0334C7.03329 19.5668 5.86663 18.2501 4.99996 17.0834C4.13329 15.9168 3.52774 14.8446 3.18329 13.8668C2.83885 12.889 2.66663 11.889 2.66663 10.8668C2.66663 8.77789 3.36663 7.03345 4.76663 5.63345C6.16663 4.23345 7.91107 3.53345 9.99996 3.53345C11.1555 3.53345 12.2555 3.77789 13.3 4.26678C14.3444 4.75567 15.2444 5.44456 16 6.33345C16.7555 5.44456 17.6555 4.75567 18.7 4.26678C19.7444 3.77789 20.8444 3.53345 22 3.53345C24.0888 3.53345 25.8333 4.23345 27.2333 5.63345C28.6333 7.03345 29.3333 8.77789 29.3333 10.8668C29.3333 11.889 29.1611 12.889 28.8166 13.8668C28.4722 14.8446 27.8666 15.9168 27 17.0834C26.1333 18.2501 24.9666 19.5668 23.5 21.0334C22.0333 22.5001 20.1777 24.2446 17.9333 26.2668L16 28.0001ZM16 24.4001C18.1333 22.489 19.8888 20.8501 21.2666 19.4834C22.6444 18.1168 23.7333 16.9279 24.5333 15.9168C25.3333 14.9057 25.8888 14.0057 26.2 13.2168C26.5111 12.4279 26.6666 11.6446 26.6666 10.8668C26.6666 9.53345 26.2222 8.42234 25.3333 7.53345C24.4444 6.64456 23.3333 6.20011 22 6.20011C20.9555 6.20011 19.9888 6.49456 19.1 7.08345C18.2111 7.67234 17.6 8.42234 17.2666 9.33345H14.7333C14.4 8.42234 13.7888 7.67234 12.9 7.08345C12.0111 6.49456 11.0444 6.20011 9.99996 6.20011C8.66663 6.20011 7.55551 6.64456 6.66663 7.53345C5.77774 8.42234 5.33329 9.53345 5.33329 10.8668C5.33329 11.6446 5.48885 12.4279 5.79996 13.2168C6.11107 14.0057 6.66663 14.9057 7.46663 15.9168C8.26663 16.9279 9.35551 18.1168 10.7333 19.4834C12.1111 20.8501 13.8666 22.489 16 24.4001Z" fill="#308CE8"/>
</svg>
