<svg width="25" height="50" viewBox="0 0 25 50" fill="none" xmlns="http://www.w3.org/2000/svg">
<path d="M12.5 0C5.60625 0 0 5.60625 0 12.5C0 18.6812 4.51455 23.8146 10.4167 24.8125V47.9167C10.4167 49.0667 11.3479 50 12.5 50C13.6521 50 14.5833 49.0667 14.5833 47.9167V24.8125C20.4855 23.8146 25 18.6812 25 12.5C25 5.60625 19.3938 0 12.5 0ZM10.4167 12.5C9.2667 12.5 8.3334 11.5667 8.3334 10.4167C8.3334 9.2667 9.2667 8.3334 10.4167 8.3334C11.5667 8.3334 12.5 9.2667 12.5 10.4167C12.5 11.5667 11.5667 12.5 10.4167 12.5Z" fill="#308CE8"/>
</svg>
