<svg width="21" height="21" viewBox="0 0 21 21" fill="none" xmlns="http://www.w3.org/2000/svg">
<path fill-rule="evenodd" clip-rule="evenodd" d="M13 0.5C10.5989 0.502153 8.34367 1.65284 6.93277 3.59572C5.52187 5.5386 5.12556 8.03919 5.86656 10.3231L0.469375 15.7194C0.328758 15.8601 0.249844 16.051 0.25 16.25V20C0.25 20.4142 0.585786 20.75 1 20.75H4.75C5.16421 20.75 5.5 20.4142 5.5 20V18.5H7C7.41421 18.5 7.75 18.1642 7.75 17.75V16.25H9.25C9.44897 16.2502 9.63985 16.1712 9.78063 16.0306L10.6769 15.1334C13.4932 16.0478 16.584 15.2196 18.5657 13.0194C20.5474 10.8192 21.0491 7.65903 19.8462 4.95328C18.6433 2.24753 15.9611 0.502799 13 0.5ZM13 14C12.2408 14.0013 11.4883 13.8578 10.7828 13.5772C10.5004 13.4546 10.1718 13.5171 9.95406 13.7347L8.93969 14.75H7C6.58579 14.75 6.25 15.0858 6.25 15.5V17H4.75C4.33579 17 4 17.3358 4 17.75V19.25H1.75V16.5603L7.26531 11.0459C7.48292 10.8282 7.54537 10.4996 7.42281 10.2172C6.44917 7.76888 7.18671 4.97186 9.24099 3.32197C11.2953 1.67209 14.1855 1.55545 16.3661 3.03444C18.5466 4.51343 19.5072 7.24193 18.734 9.76073C17.9608 12.2795 15.6348 13.9992 13 14ZM16 6.125C16 6.74632 15.4963 7.25 14.875 7.25C14.2537 7.25 13.75 6.74632 13.75 6.125C13.75 5.50368 14.2537 5 14.875 5C15.4963 5 16 5.50368 16 6.125Z" fill="#4F7396"/>
</svg>
