<svg width="21" height="20" viewBox="0 0 21 20" fill="none" xmlns="http://www.w3.org/2000/svg">
<mask id="path-1-inside-1_87_451" fill="white">
<path d="M7.375 1.25H6.125C5.08947 1.25 4.25 2.08947 4.25 3.125V16.875C4.25 17.9105 5.08947 18.75 6.125 18.75H7.375C8.41053 18.75 9.25 17.9105 9.25 16.875V3.125C9.25 2.08947 8.41053 1.25 7.375 1.25Z"/>
</mask>
<path d="M7.375 1.25H6.125C5.08947 1.25 4.25 2.08947 4.25 3.125V16.875C4.25 17.9105 5.08947 18.75 6.125 18.75H7.375C8.41053 18.75 9.25 17.9105 9.25 16.875V3.125C9.25 2.08947 8.41053 1.25 7.375 1.25Z" fill="white"/>
<path d="M6.125 17.25H7.375V-14.75H6.125V17.25ZM7.375 17.25C-0.426022 17.25 -6.75 10.926 -6.75 3.125H25.25C25.25 -6.74709 17.2471 -14.75 7.375 -14.75V17.25ZM-6.75 3.125V16.875H25.25V3.125H-6.75ZM-6.75 16.875C-6.75 9.07398 -0.426022 2.75 7.375 2.75V34.75C17.2471 34.75 25.25 26.7471 25.25 16.875H-6.75ZM7.375 2.75H6.125V34.75H7.375V2.75ZM6.125 2.75C13.926 2.75 20.25 9.07398 20.25 16.875H-11.75C-11.75 26.7471 -3.74709 34.75 6.125 34.75V2.75ZM20.25 16.875V3.125H-11.75V16.875H20.25ZM20.25 3.125C20.25 10.926 13.926 17.25 6.125 17.25V-14.75C-3.74709 -14.75 -11.75 -6.74709 -11.75 3.125H20.25Z" fill="white" mask="url(#path-1-inside-1_87_451)"/>
<mask id="path-3-inside-2_87_451" fill="white">
<path d="M14.875 1.25H13.625C12.5895 1.25 11.75 2.08947 11.75 3.125V16.875C11.75 17.9105 12.5895 18.75 13.625 18.75H14.875C15.9105 18.75 16.75 17.9105 16.75 16.875V3.125C16.75 2.08947 15.9105 1.25 14.875 1.25Z"/>
</mask>
<path d="M14.875 1.25H13.625C12.5895 1.25 11.75 2.08947 11.75 3.125V16.875C11.75 17.9105 12.5895 18.75 13.625 18.75H14.875C15.9105 18.75 16.75 17.9105 16.75 16.875V3.125C16.75 2.08947 15.9105 1.25 14.875 1.25Z" fill="white"/>
<path d="M13.625 17.25H14.875V-14.75H13.625V17.25ZM14.875 17.25C7.07398 17.25 0.75 10.926 0.75 3.125H32.75C32.75 -6.74709 24.7471 -14.75 14.875 -14.75V17.25ZM0.75 3.125V16.875H32.75V3.125H0.75ZM0.75 16.875C0.75 9.07398 7.07398 2.75 14.875 2.75V34.75C24.7471 34.75 32.75 26.7471 32.75 16.875H0.75ZM14.875 2.75H13.625V34.75H14.875V2.75ZM13.625 2.75C21.426 2.75 27.75 9.07398 27.75 16.875H-4.25C-4.25 26.7471 3.75291 34.75 13.625 34.75V2.75ZM27.75 16.875V3.125H-4.25V16.875H27.75ZM27.75 3.125C27.75 10.926 21.426 17.25 13.625 17.25V-14.75C3.75291 -14.75 -4.25 -6.74709 -4.25 3.125H27.75Z" fill="white" mask="url(#path-3-inside-2_87_451)"/>
<path d="M7.375 1.25H6.125C5.08947 1.25 4.25 2.08947 4.25 3.125V16.875C4.25 17.9105 5.08947 18.75 6.125 18.75H7.375C8.41053 18.75 9.25 17.9105 9.25 16.875V3.125C9.25 2.08947 8.41053 1.25 7.375 1.25Z" fill="white"/>
<path d="M14.875 1.25H13.625C12.5895 1.25 11.75 2.08947 11.75 3.125V16.875C11.75 17.9105 12.5895 18.75 13.625 18.75H14.875C15.9105 18.75 16.75 17.9105 16.75 16.875V3.125C16.75 2.08947 15.9105 1.25 14.875 1.25Z" fill="white"/>
</svg>
