<svg width="24" height="24" viewBox="0 0 24 24" fill="none" xmlns="http://www.w3.org/2000/svg">
<path d="M21 3.99993C21 5.10454 20.1047 6 19 6C17.8953 6 17 5.10454 17 3.99993C17 2.89546 17.8953 2 19 2C20.1047 2 21 2.89546 21 3.99993Z" fill="white"/>
<path d="M20.4553 20.8842C19.7455 21.4182 18.7801 21.4643 18.0225 21.0003L11.2012 16.8536C11.3196 16.8469 11.4358 16.8197 11.5447 16.7731L16.3335 14.6488C16.8624 14.4148 17.2188 13.909 17.26 13.3336C17.3013 12.7582 17.021 12.207 16.531 11.9002L13.9646 10.0949C13.881 10.042 13.8244 9.95528 13.8102 9.85752C13.7958 9.75976 13.8247 9.66048 13.8899 9.58593L14.3867 9.33817L14.1722 9.18879C13.8888 8.99281 13.6905 8.69693 13.6174 8.36088L13.4881 7.75676C13.4102 7.40528 13.4763 7.03716 13.672 6.73456C13.8676 6.43181 14.1764 6.21949 14.5297 6.14495L15.2206 5.99556C15.309 5.97646 15.4016 5.99327 15.4776 6.04245C15.5535 6.09148 15.6069 6.16862 15.6257 6.25691C15.6456 6.34428 15.6295 6.43609 15.5808 6.51139C15.5321 6.58685 15.455 6.6394 15.3669 6.65742L14.676 6.80666C14.3086 6.88685 14.0746 7.24734 14.1518 7.61424L14.2847 8.21837C14.3196 8.38655 14.4184 8.53486 14.5603 8.63232L15.0777 8.99204L15.0844 8.98868L17.501 10.6683C17.8541 10.9138 18.319 10.9297 18.6882 10.7091C18.7184 10.7426 18.7548 10.7699 18.7954 10.7894L20.1729 11.4421C20.2826 11.4942 20.4121 11.484 20.5121 11.4153C20.6123 11.3465 20.6683 11.2297 20.6586 11.1088C20.649 10.9879 20.5754 10.8814 20.4656 10.8292L19.0977 10.1797C19.2407 9.75426 19.0853 9.28593 18.7161 9.02931L17.4909 8.17758C17.4349 8.13909 17.4075 8.07112 17.4209 8.00482C17.4342 7.93853 17.4857 7.88629 17.5522 7.87224L18.0354 7.77035C18.2185 7.72987 18.3341 7.54917 18.2941 7.36664L18.0933 6.42662C17.9906 5.95599 17.7542 5.52494 17.4126 5.18461C16.5497 4.32356 15.1734 4.25314 14.2268 5.02178L13.3316 5.74795L11.9821 6.84225C11.9508 6.80223 11.9109 6.76954 11.8654 6.74693L7.85818 4.84459L8.03222 4.50151C8.11618 4.3338 8.04785 4.12987 7.87963 4.04617C7.7114 3.96231 7.50687 4.03043 7.42291 4.19815L7.2435 4.55345L6.17043 4.04449C6.05966 3.98156 5.923 3.98568 5.81621 4.05503C5.70943 4.12453 5.65059 4.24749 5.66346 4.37382C5.67649 4.50014 5.75906 4.60874 5.87765 4.65518L6.93893 5.1591L6.74052 5.55442C6.65641 5.72229 6.72474 5.92606 6.89296 6.00992C7.06119 6.09362 7.26572 6.02565 7.34968 5.85793L7.55391 5.4507L11.4282 7.28996L10.7074 7.8756C10.5357 8.01231 10.3904 8.17896 10.2786 8.3676C10.1554 8.61414 10.0924 8.88619 10.0947 9.16175C10.091 9.7952 10.4068 10.388 10.9354 10.7397L14.1688 12.8062C14.273 12.8742 14.3317 12.9935 14.3217 13.1172C14.3119 13.2411 14.2349 13.3495 14.1212 13.4001L10.7687 14.8899C10.2542 15.1046 9.99513 15.6805 10.1764 16.2064C10.1811 16.2189 10.1891 16.2295 10.1945 16.2403L5.52067 13.4004C5.4168 13.3358 5.28611 13.3318 5.17856 13.3899C5.07085 13.4479 5.00267 13.5591 5.00007 13.6811C4.99762 13.8032 5.06089 13.9171 5.16599 13.9796L17.6681 21.5809C18.6632 22.1911 19.9318 22.1305 20.8638 21.4283C21.0142 21.3157 21.0447 21.1031 20.9319 20.9531C20.819 20.8032 20.6058 20.7728 20.4553 20.8853V20.8842Z" fill="white"/>
<path d="M5.69965 11C5.83358 11.0001 5.95131 10.9158 5.9883 10.7932C6.02529 10.6706 5.9725 10.5396 5.85896 10.472L3.45939 9.04337C3.31871 8.95977 3.13334 9.00067 3.04558 9.13481C2.95769 9.26896 3.00076 9.44542 3.14158 9.52915L5.54101 10.9577C5.58867 10.9856 5.64375 11.0003 5.69965 11Z" fill="white"/>
<path d="M5.18865 9.52885L8.38749 10.9566C8.57521 11.0403 8.82214 10.9993 8.93931 10.8653C9.0563 10.7313 8.99907 10.5548 8.81135 10.4712L5.61251 9.04334C5.42479 8.95979 5.17786 9.00067 5.06069 9.13474C4.9437 9.26881 5.00093 9.44517 5.18865 9.52885Z" fill="white"/>
</svg>
