<svg xmlns="http://www.w3.org/2000/svg" xmlns:xlink="http://www.w3.org/1999/xlink" version="1.1" width="256" height="256" viewBox="0 0 256 256" xml:space="preserve">

<defs>
</defs>
<g style="stroke: none; stroke-width: 0; stroke-dasharray: none; stroke-linecap: butt; stroke-linejoin: miter; stroke-miterlimit: 10; fill: none; fill-rule: nonzero; opacity: 1;" transform="translate(1.4065934065934016 1.4065934065934016) scale(2.81 2.81)" >
	<path d="M 68.058 11.551 L 68.058 11.551 c -12.098 0 -21.941 9.843 -21.942 21.942 c 0 16.148 12.092 29.808 21.942 44.957 C 77.908 63.3 90 49.64 90 33.492 C 89.999 21.394 80.157 11.551 68.058 11.551 z M 68.058 43.695 c -5.626 0 -10.202 -4.577 -10.202 -10.202 c 0 -5.625 4.577 -10.202 10.202 -10.202 c 5.625 0 10.202 4.577 10.202 10.202 C 78.26 39.118 73.684 43.695 68.058 43.695 z" style="stroke: none; stroke-width: 1; stroke-dasharray: none; stroke-linecap: butt; stroke-linejoin: miter; stroke-miterlimit: 10; fill: rgb(0,0,0); fill-rule: nonzero; opacity: 1;" transform=" matrix(1 0 0 1 0 0) " stroke-linecap="round" />
	<path d="M 14.01 11.551 L 14.01 11.551 C 6.285 11.551 0 17.835 0 25.561 c 0 10.31 7.721 19.033 14.01 28.705 c 6.289 -9.673 14.01 -18.395 14.01 -28.705 C 28.019 17.835 21.735 11.551 14.01 11.551 z M 14.01 32.075 c -3.592 0 -6.514 -2.922 -6.514 -6.514 s 2.922 -6.514 6.514 -6.514 c 3.592 0 6.514 2.922 6.514 6.514 S 17.602 32.075 14.01 32.075 z" style="stroke: none; stroke-width: 1; stroke-dasharray: none; stroke-linecap: butt; stroke-linejoin: miter; stroke-miterlimit: 10; fill: rgb(0,0,0); fill-rule: nonzero; opacity: 1;" transform=" matrix(1 0 0 1 0 0) " stroke-linecap="round" />
	<path d="M 58.912 78.449 H 19.945 c -4.1 0 -7.435 -3.335 -7.435 -7.435 V 70.57 c 0 -4.1 3.335 -7.435 7.435 -7.435 H 33.89 c 2.445 0 4.435 -1.989 4.435 -4.435 s -1.989 -4.436 -4.435 -4.436 H 22.697 c -0.829 0 -1.5 -0.672 -1.5 -1.5 s 0.671 -1.5 1.5 -1.5 H 33.89 c 4.1 0 7.435 3.336 7.435 7.436 s -3.335 7.435 -7.435 7.435 H 19.945 c -2.445 0 -4.435 1.989 -4.435 4.435 v 0.444 c 0 2.445 1.99 4.435 4.435 4.435 h 38.967 c 0.828 0 1.5 0.672 1.5 1.5 S 59.74 78.449 58.912 78.449 z" style="stroke: none; stroke-width: 1; stroke-dasharray: none; stroke-linecap: butt; stroke-linejoin: miter; stroke-miterlimit: 10; fill: rgb(0,0,0); fill-rule: nonzero; opacity: 1;" transform=" matrix(1 0 0 1 0 0) " stroke-linecap="round" />
</g>
</svg>